<svg width="430px" height="213px"
 viewBox="0.00 0.00 429.62 212.50" xmlns="http://www.w3.org/2000/svg" xmlns:xlink="http://www.w3.org/1999/xlink">
<g id="graph0" class="graph" transform="scale(1.0 1.0) rotate(0.0) translate(4.0 208.5)">
<polygon fill="white" stroke="none" points="-4,4 -4,-208.5 425.62,-208.5 425.62,4 -4,4"/>
<text text-anchor="start" x="133.56" y="-7.2" font-family="Times,serif" font-size="14.00">&lt;&lt;pattern&gt;&gt; reproducibility</text>
<!-- shareable -->
<g id="node1" class="node">
<title>shareable</title>
<polygon fill="lightgrey" stroke="black" stroke-width="1.01" points="297.75,-204.5 150.5,-204.5 150.5,-168.5 297.75,-168.5 297.75,-204.5"/>
<text text-anchor="start" x="158.5" y="-181.45" font-family="Times,serif" font-size="14.00">Notebook can be shared</text>
</g>
<!-- gate -->
<g id="node2" class="node">
<title>gate</title>
<polygon fill="palegreen" stroke="black" stroke-width="1.01" points="394.72,-132.5 123.34,-132.5 53.53,-96.5 324.91,-96.5 394.72,-132.5"/>
<text text-anchor="start" x="146.88" y="-109.45" font-family="Times,serif" font-size="14.00">Assess quality gates are met</text>
</g>
<!-- gate&#45;&gt;shareable -->
<g id="edge1" class="edge">
<title>gate&#45;&gt;shareable</title>
<path fill="none" stroke="black" d="M224.12,-132.8C224.12,-140.09 224.12,-148.77 224.12,-156.96"/>
<polygon fill="black" stroke="black" points="220.63,-156.88 224.13,-166.88 227.63,-156.88 220.63,-156.88"/>
</g>
<!-- repro -->
<g id="node3" class="node">
<title>repro</title>
<polygon fill="lightcoral" stroke="black" stroke-width="1.01" points="228.25,-60.5 0,-60.5 0,-24.5 228.25,-24.5 228.25,-60.5"/>
<text text-anchor="start" x="8" y="-37.45" font-family="Times,serif" font-size="14.00">Execution environment is reproducible</text>
</g>
<!-- repro&#45;&gt;gate -->
<g id="edge2" class="edge">
<title>repro&#45;&gt;gate</title>
<path fill="none" stroke="black" d="M141.6,-60.98C155.48,-69.82 172.52,-80.66 187.51,-90.2"/>
<polygon fill="black" stroke="black" points="185.41,-93.01 195.72,-95.43 189.17,-87.11 185.41,-93.01"/>
</g>
<!-- fair -->
<g id="node4" class="node">
<title>fair</title>
<polygon fill="lightcoral" stroke="black" stroke-width="1.01" points="421.62,-60.5 246.62,-60.5 246.62,-24.5 421.62,-24.5 421.62,-60.5"/>
<text text-anchor="start" x="254.62" y="-37.45" font-family="Times,serif" font-size="14.00">Notebook code quality is fair</text>
</g>
<!-- fair&#45;&gt;gate -->
<g id="edge3" class="edge">
<title>fair&#45;&gt;gate</title>
<path fill="none" stroke="black" d="M306.65,-60.98C292.77,-69.82 275.73,-80.66 260.74,-90.2"/>
<polygon fill="black" stroke="black" points="259.08,-87.11 252.53,-95.43 262.84,-93.01 259.08,-87.11"/>
</g>
</g>
</svg>
